<svg width="16" height="17" viewBox="0 0 16 17" fill="none" xmlns="http://www.w3.org/2000/svg">
<path d="M7.99999 1.83325C4.33333 1.83325 1.33333 4.83325 1.33333 8.49992C1.33333 12.1666 4.33333 15.1666 7.99999 15.1666C11.6667 15.1666 14.6667 12.1666 14.6667 8.49992C14.6667 4.83325 11.6667 1.83325 7.99999 1.83325ZM7.99999 13.8333C5.06666 13.8333 2.66666 11.4333 2.66666 8.49992C2.66666 5.56659 5.06666 3.16659 7.99999 3.16659C10.9333 3.16659 13.3333 5.56659 13.3333 8.49992C13.3333 11.4333 10.9333 13.8333 7.99999 13.8333Z" fill="white"/>
<path d="M8.86666 7.8332H7.13333C6.8 7.8332 6.53333 7.56654 6.53333 7.2332C6.53333 6.89987 6.8 6.6332 7.13333 6.6332H9.6C10 6.6332 10.2667 6.36654 10.2667 5.96654C10.2667 5.56654 10 5.29987 9.6 5.29987H8.66666V4.69987C8.66666 4.29987 8.4 4.0332 8 4.0332C7.6 4.0332 7.33333 4.29987 7.33333 4.69987V5.29987H7.13333C6.06666 5.29987 5.2 6.16654 5.2 7.2332C5.2 8.29987 6.06666 9.16654 7.13333 9.16654H8.8C9.13333 9.16654 9.4 9.4332 9.4 9.76654C9.4 10.0999 9.13333 10.3665 8.8 10.3665H6.33333C5.93333 10.3665 5.66666 10.6332 5.66666 11.0332C5.66666 11.4332 5.93333 11.6999 6.33333 11.6999H7.33333V12.2999C7.33333 12.6999 7.6 12.9665 8 12.9665C8.4 12.9665 8.66666 12.6999 8.66666 12.2999V11.6999H8.86666C9.93333 11.6999 10.8 10.8332 10.8 9.76654C10.8 8.69987 9.93333 7.8332 8.86666 7.8332Z" fill="white"/>
</svg>
