<svg width="52" height="40" viewBox="0 0 52 40" fill="none" xmlns="http://www.w3.org/2000/svg">
<g clip-path="url(#clip0_0_34)">
<path d="M44.1319 3.336C40.801 1.77755 37.2394 0.644924 33.5159 0C33.0586 0.82677 32.5244 1.93879 32.156 2.8234C28.1978 2.22814 24.276 2.22814 20.3906 2.8234C20.0223 1.93879 19.4759 0.82677 19.0145 0C15.287 0.644924 11.7213 1.78171 8.39037 3.34425C1.67188 13.4968 -0.1494 23.3971 0.761239 33.1569C5.2173 36.4846 9.53576 38.5061 13.7813 39.8289C14.8296 38.3862 15.7645 36.8525 16.5699 35.2362C15.036 34.6534 13.5668 33.9341 12.1787 33.0991C12.5469 32.8263 12.9072 32.541 13.2552 32.2475C21.7221 36.2077 30.9216 36.2077 39.2873 32.2475C39.6395 32.541 39.9996 32.8263 40.3639 33.0991C38.9716 33.9382 37.4985 34.6575 35.9645 35.2404C36.7699 36.8525 37.7008 38.3903 38.7531 39.833C43.0028 38.5102 47.3252 36.4888 51.7813 33.1569C52.8498 21.8429 49.956 12.0334 44.1319 3.336ZM17.7234 27.1548C15.1817 27.1548 13.0973 24.7819 13.0973 21.8924C13.0973 19.0029 15.1372 16.626 17.7234 16.626C20.3097 16.626 22.394 18.9988 22.3495 21.8924C22.3535 24.7819 20.3097 27.1548 17.7234 27.1548ZM34.8192 27.1548C32.2775 27.1548 30.1931 24.7819 30.1931 21.8924C30.1931 19.0029 32.2329 16.626 34.8192 16.626C37.4053 16.626 39.4897 18.9988 39.4452 21.8924C39.4452 24.7819 37.4053 27.1548 34.8192 27.1548Z" fill="white"/>
</g>
<defs>
<clipPath id="clip0_0_34">
<rect width="51.4573" height="40" fill="white" transform="translate(0.542725)"/>
</clipPath>
</defs>
</svg>
