<svg width="18" height="13" viewBox="0 0 18 13" fill="none" xmlns="http://www.w3.org/2000/svg">
<g clip-path="url(#clip0_0_198)">
<path d="M14.7331 1.0842C13.6506 0.577702 12.4931 0.2096 11.2829 0C11.1343 0.2687 10.9607 0.630108 10.841 0.917606C9.55455 0.724145 8.27996 0.724145 7.0172 0.917606C6.89751 0.630108 6.71993 0.2687 6.56998 0C5.35853 0.2096 4.19969 0.579055 3.11714 1.08688C0.933624 4.38646 0.34171 7.60407 0.637668 10.776C2.08589 11.8575 3.48939 12.5145 4.8692 12.9444C5.20989 12.4755 5.51373 11.9771 5.77548 11.4518C5.27696 11.2623 4.79949 11.0286 4.34833 10.7572C4.46802 10.6685 4.5851 10.5758 4.69821 10.4804C7.44995 11.7675 10.4398 11.7675 13.1587 10.4804C13.2731 10.5758 13.3901 10.6685 13.5085 10.7572C13.056 11.0299 12.5773 11.2637 12.0787 11.4531C12.3405 11.9771 12.643 12.4769 12.985 12.9457C14.3662 12.5158 15.771 11.8588 17.2192 10.776C17.5665 7.09893 16.626 3.91086 14.7331 1.0842ZM6.15037 8.82529C5.32433 8.82529 4.6469 8.05413 4.6469 7.11504C4.6469 6.17596 5.30986 5.40346 6.15037 5.40346C6.9909 5.40346 7.66831 6.1746 7.65384 7.11504C7.65515 8.05413 6.9909 8.82529 6.15037 8.82529ZM11.7065 8.82529C10.8804 8.82529 10.203 8.05413 10.203 7.11504C10.203 6.17596 10.866 5.40346 11.7065 5.40346C12.547 5.40346 13.2244 6.1746 13.21 7.11504C13.21 8.05413 12.547 8.82529 11.7065 8.82529Z" fill="#747DA4"/>
</g>
<defs>
<clipPath id="clip0_0_198">
<rect width="16.7236" height="13" fill="white" transform="translate(0.56665)"/>
</clipPath>
</defs>
</svg>
