<svg width="24" height="25" viewBox="0 0 24 25" fill="none" xmlns="http://www.w3.org/2000/svg">
<path fill-rule="evenodd" clip-rule="evenodd" d="M11.0594 1.53372C16.3938 1.08884 20.8873 5.10236 20.9997 10.2773L21 10.299C21 12.1079 20.4334 13.7985 19.4291 15.2503L19.4191 15.2645L14.3434 22.3361C14.3334 22.3501 14.3229 22.3639 14.3122 22.3774C13.1455 23.8369 10.8509 23.9267 9.72985 22.3317L4.65255 15.2578C3.32905 13.3814 2.63357 11.0124 3.196 8.50522C3.88951 4.74587 7.1674 1.97839 11.0289 1.53673C11.039 1.53557 11.0492 1.53456 11.0594 1.53372ZM11.2409 3.52554C8.15027 3.8853 5.66832 6.08548 5.15986 8.88419C5.15726 8.89848 5.15436 8.91272 5.15114 8.92689C4.72738 10.7929 5.22491 12.5977 6.28461 14.1017L11.3649 21.1798C11.6356 21.5668 12.3108 21.6575 12.7361 21.1456L17.789 14.1056C18.571 12.9725 18.9977 11.6813 19 10.3099C18.9074 6.33162 15.4499 3.18282 11.2409 3.52554Z" fill="#747DA4"/>
<path fill-rule="evenodd" clip-rule="evenodd" d="M12 8.3999C10.9506 8.3999 10.1 9.25056 10.1 10.2999C10.1 11.3492 10.9506 12.1999 12 12.1999C13.0493 12.1999 13.9 11.3492 13.9 10.2999C13.9 9.25056 13.0493 8.3999 12 8.3999ZM8.09998 10.2999C8.09998 8.14599 9.84607 6.3999 12 6.3999C14.1539 6.3999 15.9 8.14599 15.9 10.2999C15.9 12.4538 14.1539 14.1999 12 14.1999C9.84607 14.1999 8.09998 12.4538 8.09998 10.2999Z" fill="#747DA4"/>
<path fill-rule="evenodd" clip-rule="evenodd" d="M12 8.3999C10.9506 8.3999 10.1 9.25056 10.1 10.2999C10.1 11.3492 10.9506 12.1999 12 12.1999C13.0493 12.1999 13.9 11.3492 13.9 10.2999C13.9 9.25056 13.0493 8.3999 12 8.3999ZM8.09998 10.2999C8.09998 8.14599 9.84607 6.3999 12 6.3999C14.1539 6.3999 15.9 8.14599 15.9 10.2999C15.9 12.4538 14.1539 14.1999 12 14.1999C9.84607 14.1999 8.09998 12.4538 8.09998 10.2999Z" fill="#747DA4"/>
<path fill-rule="evenodd" clip-rule="evenodd" d="M12 8.3999C10.9506 8.3999 10.1 9.25056 10.1 10.2999C10.1 11.3492 10.9506 12.1999 12 12.1999C13.0493 12.1999 13.9 11.3492 13.9 10.2999C13.9 9.25056 13.0493 8.3999 12 8.3999ZM8.09998 10.2999C8.09998 8.14599 9.84607 6.3999 12 6.3999C14.1539 6.3999 15.9 8.14599 15.9 10.2999C15.9 12.4538 14.1539 14.1999 12 14.1999C9.84607 14.1999 8.09998 12.4538 8.09998 10.2999Z" fill="#747DA4"/>
</svg>
