<svg width="24" height="25" viewBox="0 0 24 25" fill="none" xmlns="http://www.w3.org/2000/svg">
<path d="M19 20.5H5C2.8 20.5 1 18.7 1 16.5V8.5C1 6.3 2.8 4.5 5 4.5H19C21.2 4.5 23 6.3 23 8.5V16.5C23 18.7 21.2 20.5 19 20.5Z" fill="#747DA4"/>
<path d="M12 13.1001C11.4 13.1001 10.7 12.9001 10.2 12.6001L5.20001 9.70008C4.70001 9.50008 4.50001 8.80008 4.80001 8.40008C5.00001 7.90008 5.70001 7.70008 6.10001 8.00008L11.1 10.9001C11.6 11.2001 12.3 11.2001 12.8 10.9001L17.8 8.00008C18.3 7.70008 18.9 7.90008 19.2 8.40008C19.5 8.90008 19.3 9.50009 18.8 9.80009L13.8 12.7001C13.3 12.9001 12.6 13.1001 12 13.1001Z" fill="#4B516A"/>
</svg>
