<svg width="15" height="13" viewBox="0 0 15 13" fill="none" xmlns="http://www.w3.org/2000/svg">
<path d="M14.9333 1.56166C14.4481 1.7812 13.938 1.93408 13.4156 2.01651C13.6598 1.9725 14.0192 1.5103 14.1622 1.32323C14.3795 1.04104 14.5452 0.718896 14.6507 0.373165C14.6507 0.347488 14.6751 0.310806 14.6507 0.292465C14.6384 0.285402 14.6246 0.281701 14.6106 0.281701C14.5965 0.281701 14.5827 0.285402 14.5704 0.292465C14.0032 0.615421 13.3995 0.86191 12.7736 1.0261C12.7518 1.03311 12.7286 1.03374 12.7064 1.02792C12.6843 1.02211 12.6641 1.01006 12.648 0.993089C12.5993 0.932098 12.5468 0.874508 12.491 0.820684C12.2357 0.580216 11.9461 0.383403 11.6327 0.237443C11.2097 0.0549785 10.7527 -0.0240427 10.2964 0.00634669C9.85364 0.0357464 9.42135 0.160608 9.02643 0.373165C8.63753 0.597263 8.29574 0.901707 8.0216 1.2682C7.73323 1.64542 7.52503 2.08319 7.41102 2.55207C7.31701 2.99807 7.30635 3.45902 7.37962 3.9093C7.37962 3.98633 7.37962 3.99733 7.31682 3.98633C4.82917 3.60117 2.78811 2.67312 1.12038 0.681293C1.04711 0.593257 1.00873 0.593257 0.949415 0.681293C0.223705 1.84044 0.576093 3.67453 1.48323 4.58058C1.60534 4.70163 1.73095 4.81901 1.86353 4.92905C1.44761 4.89801 1.04185 4.77951 0.670296 4.58058C0.600516 4.53289 0.562137 4.55857 0.558648 4.6466C0.548757 4.76866 0.548757 4.89137 0.558648 5.01342C0.631448 5.59835 0.850703 6.15246 1.19399 6.61908C1.53728 7.0857 1.99229 7.44809 2.51248 7.66919C2.63929 7.7263 2.77143 7.76933 2.90674 7.79758C2.5217 7.87728 2.1268 7.88967 1.73793 7.83426C1.65419 7.81592 1.62279 7.86361 1.65419 7.94797C2.16707 9.41525 3.28006 9.86277 4.09648 10.1122C4.20813 10.1305 4.31978 10.1305 4.44538 10.1599C4.44538 10.1599 4.44538 10.1599 4.42445 10.1819C4.18371 10.6441 3.21028 10.9559 2.76369 11.1173C1.94855 11.4251 1.07945 11.5428 0.216727 11.4621C0.0806563 11.4401 0.0492554 11.4438 0.0143655 11.4621C-0.0205244 11.4804 0.0143655 11.5208 0.0527444 11.5575C0.227194 11.6785 0.401643 11.7849 0.583071 11.8876C1.12318 12.1973 1.69419 12.4434 2.2857 12.6212C5.34903 13.5089 8.79615 12.856 11.0954 10.4533C12.9027 8.5679 13.5377 5.96715 13.5377 3.36274C13.5377 3.2637 13.6528 3.20501 13.7191 3.15365C14.1764 2.77909 14.5795 2.33674 14.9158 1.84044C14.9741 1.76646 15.004 1.67226 14.9996 1.57633C14.9996 1.52131 14.9996 1.53231 14.9333 1.56166Z" fill="#747DA4"/>
</svg>
