<svg width="16" height="17" viewBox="0 0 16 17" fill="none" xmlns="http://www.w3.org/2000/svg">
<path d="M13.7861 12.1054C13.118 10.4727 11.8485 9.24822 10.3117 8.63597C11.1803 7.9557 11.7148 6.86727 11.7148 5.7108C11.7148 3.53393 10.0445 1.83325 7.97323 1.83325C5.90197 1.83325 4.23161 3.53393 4.23161 5.64278C4.23161 6.79924 4.76613 7.88767 5.63472 8.56795C4.09798 9.18019 2.8285 10.4047 2.16036 12.0373C1.8931 12.7176 1.95991 13.5339 2.3608 14.1462C2.76169 14.8264 3.49665 15.1666 4.29842 15.1666H11.7148C12.5166 15.1666 13.1848 14.7584 13.6525 14.1462C14.0534 13.5339 14.1202 12.7856 13.7861 12.1054ZM5.5679 5.64278C5.5679 4.28223 6.63693 3.1938 7.97323 3.1938C9.30952 3.1938 10.3786 4.28223 10.3786 5.64278C10.3786 7.00332 9.30952 8.09175 7.97323 8.09175C6.63693 8.09175 5.5679 7.00332 5.5679 5.64278ZM12.5166 13.4659C12.3162 13.738 12.0489 13.9421 11.7148 13.9421H4.23161C3.89754 13.9421 3.63028 13.806 3.42983 13.4659C3.22939 13.1938 3.22939 12.9217 3.36302 12.6496C4.16479 10.6768 5.96879 9.4523 7.97323 9.4523C9.97767 9.4523 11.7817 10.6768 12.5834 12.5816C12.7171 12.8537 12.6503 13.1938 12.5166 13.4659Z" fill="white"/>
</svg>
