<svg width="13" height="12" viewBox="0 0 13 12" fill="none" xmlns="http://www.w3.org/2000/svg">
<g clip-path="url(#clip0_0_137)">
<path d="M6.76666 11C6.56666 11 6.31666 10.9499 6.11666 10.8498C5.51666 10.5995 5.16666 9.99863 5.16666 9.34774V8.4465H2.56666C1.76666 8.4465 1.16666 7.79561 1.16666 6.99451V5.04184C1.16666 4.24074 1.81666 3.58985 2.56666 3.58985H5.16666V2.63854C5.16666 1.98765 5.51666 1.38683 6.11666 1.13649C6.66666 0.886142 7.31666 0.986279 7.81666 1.38683L11.6167 4.74142C11.9667 5.04184 12.1667 5.49245 12.1667 5.99314C12.1667 6.49382 11.9667 6.94444 11.6167 7.24485L7.81666 10.5995C7.51666 10.8498 7.11666 11 6.76666 11ZM2.56666 4.59122C2.36666 4.59122 2.16666 4.79149 2.16666 5.04184V6.94444C2.16666 7.19479 2.36666 7.39506 2.56666 7.39506H5.66666C5.96666 7.39506 6.16666 7.59533 6.16666 7.89575V9.29767C6.16666 9.64815 6.36666 9.84842 6.56666 9.89849C6.66666 9.94856 6.91666 9.99863 7.16666 9.79835L10.9667 6.44376C11.1167 6.29355 11.2167 6.14334 11.2167 5.94307C11.2167 5.7428 11.1167 5.54252 10.9667 5.44238L7.16666 2.08779C6.91666 1.88751 6.66666 1.93758 6.56666 1.98765C6.36666 2.13786 6.16666 2.33813 6.16666 2.63854V4.04046C6.16666 4.34088 5.96666 4.54115 5.66666 4.54115H2.56666V4.59122Z" fill="#747DA4"/>
</g>
<defs>
<clipPath id="clip0_0_137">
<rect width="12" height="12" fill="white" transform="translate(0.666656)"/>
</clipPath>
</defs>
</svg>
